{
  "accessors": [
    {
      "bufferView": 2,
      "componentType": 5126,
      "count": 76,
      "max": [
        1.252565622329712,
        1.4411602020263672,
        1.0790982246398926
      ],
      "min": [
        -0.7583242654800415,
        -0.5650812387466431,
        -0.9264703392982483
      ],
      "type": "VEC3"
    },
    {
      "bufferView": 2,
      "byteOffset": 912,
      "componentType": 5126,
      "count": 76,
      "max": [
        0.9616217017173767,
        0.9668506979942322,
        0.975970983505249
      ],
      "min": [
        -0.9584171175956726,
        -0.9635477066040039,
        -0.9545405507087708
      ],
      "type": "VEC3"
    },
    {
      "bufferView": 3,
      "componentType": 5126,
      "count": 76,
      "max": [
        0.9835800528526306,
        0.7026268839836121,
        0.9910165667533875,
        1.0
      ],
      "min": [
        -0.9890709519386292,
        -0.6706784963607788,
        -0.6896132230758667,
        1.0
      ],
      "type": "VEC4"
    },
    {
      "bufferView": 1,
      "componentType": 5126,
      "count": 76,
      "max": [
        0.8750001192092896,
        1.0000001192092896
      ],
      "min": [
        0.1250000149011612,
        0.0
      ],
      "type": "VEC2"
    },
    {
      "bufferView": 0,
      "componentType": 5125,
      "count": 324,
      "type": "SCALAR"
    }
  ],
  "asset": {
    "extras": {
      "author": "Edi Santoso (https://sketchfab.com/edisan27)",
      "license": "CC-BY-4.0 (http://creativecommons.org/licenses/by/4.0/)",
      "source": "https://sketchfab.com/3d-models/stylized-stone-cube-d440d74f87ac456c934eca2d1349dfac",
      "title": "Stylized Stone Cube"
    },
    "generator": "Sketchfab-12.68.0",
    "version": "2.0"
  },
  "bufferViews": [
    {
      "buffer": 0,
      "byteLength": 1296,
      "name": "floatBufferViews",
      "target": 34963
    },
    {
      "buffer": 0,
      "byteLength": 608,
      "byteOffset": 1296,
      "byteStride": 8,
      "name": "floatBufferViews",
      "target": 34962
    },
    {
      "buffer": 0,
      "byteLength": 1824,
      "byteOffset": 1904,
      "byteStride": 12,
      "name": "floatBufferViews",
      "target": 34962
    },
    {
      "buffer": 0,
      "byteLength": 1216,
      "byteOffset": 3728,
      "byteStride": 16,
      "name": "floatBufferViews",
      "target": 34962
    }
  ],
  "buffers": [
    {
      "byteLength": 4944,
      "uri": "scene.bin"
    }
  ],
  "images": [
    {
      "uri": "textures/Material_baseColor.png"
    },
    {
      "uri": "textures/Material_metallicRoughness.png"
    },
    {
      "uri": "textures/Material_normal.png"
    }
  ],
  "materials": [
    {
      "doubleSided": true,
      "name": "Material",
      "normalTexture": {
        "index": 2
      },
      "occlusionTexture": {
        "index": 1
      },
      "pbrMetallicRoughness": {
        "baseColorTexture": {
          "index": 0
        },
        "metallicFactor": 0.0,
        "metallicRoughnessTexture": {
          "index": 1
        }
      }
    }
  ],
  "meshes": [
    {
      "name": "Cube.001_Material_0",
      "primitives": [
        {
          "attributes": {
            "NORMAL": 1,
            "POSITION": 0,
            "TANGENT": 2,
            "TEXCOORD_0": 3
          },
          "indices": 4,
          "material": 0,
          "mode": 4
        }
      ]
    }
  ],
  "nodes": [
    {
      "children": [
        1
      ],
      "matrix": [
        1.0,
        0.0,
        0.0,
        0.0,
        0.0,
        2.220446049250313e-16,
        -1.0,
        0.0,
        0.0,
        1.0,
        2.220446049250313e-16,
        0.0,
        0.0,
        0.0,
        0.0,
        1.0
      ],
      "name": "Sketchfab_model"
    },
    {
      "children": [
        2
      ],
      "matrix": [
        1.0,
        0.0,
        0.0,
        0.0,
        0.0,
        0.0,
        1.0,
        0.0,
        0.0,
        -1.0,
        0.0,
        0.0,
        0.0,
        0.0,
        0.0,
        1.0
      ],
      "name": "17e3835eaf0142dab4ad9bb8ff1b227f.fbx"
    },
    {
      "children": [
        3
      ],
      "name": "RootNode"
    },
    {
      "children": [
        4
      ],
      "matrix": [
        100.0,
        0.0,
        0.0,
        0.0,
        0.0,
        -1.629206793918314e-05,
        -99.99999999999868,
        0.0,
        0.0,
        99.99999999999868,
        -1.629206793918314e-05,
        0.0,
        0.0,
        0.0,
        0.0,
        1.0
      ],
      "name": "Cube.001"
    },
    {
      "mesh": 0,
      "name": "Cube.001_Material_0"
    }
  ],
  "samplers": [
    {
      "magFilter": 9729,
      "minFilter": 9987,
      "wrapS": 10497,
      "wrapT": 10497
    }
  ],
  "scene": 0,
  "scenes": [
    {
      "name": "Sketchfab_Scene",
      "nodes": [
        0
      ]
    }
  ],
  "textures": [
    {
      "sampler": 0,
      "source": 0
    },
    {
      "sampler": 0,
      "source": 1
    },
    {
      "sampler": 0,
      "source": 2
    }
  ]
}
