{
  "accessors": [
    {
      "bufferView": 2,
      "componentType": 5126,
      "count": 1273,
      "max": [
        1.988690972328186,
        -1.3059929609298706,
        1.1605420112609863
      ],
      "min": [
        -3.9698851108551025,
        -1.652461051940918,
        -0.3092780113220215
      ],
      "type": "VEC3"
    },
    {
      "bufferView": 2,
      "byteOffset": 15276,
      "componentType": 5126,
      "count": 1273,
      "max": [
        0.9999504089355469,
        1.0,
        1.0
      ],
      "min": [
        -0.9999724626541138,
        -1.0,
        -1.0
      ],
      "type": "VEC3"
    },
    {
      "bufferView": 1,
      "componentType": 5126,
      "count": 1273,
      "max": [
        0.875,
        1.0
      ],
      "min": [
        0.125,
        0.0
      ],
      "type": "VEC2"
    },
    {
      "bufferView": 0,
      "componentType": 5125,
      "count": 1995,
      "type": "SCALAR"
    },
    {
      "bufferView": 2,
      "byteOffset": 30552,
      "componentType": 5126,
      "count": 4258,
      "max": [
        3.9444329738616943,
        -1.3329579830169678,
        1.195639967918396
      ],
      "min": [
        -3.989654064178467,
        -1.6277530193328857,
        -0.5710499882698059
      ],
      "type": "VEC3"
    },
    {
      "bufferView": 2,
      "byteOffset": 81648,
      "componentType": 5126,
      "count": 4258,
      "max": [
        1.0,
        1.0,
        1.0
      ],
      "min": [
        -1.0,
        -1.0,
        -1.0
      ],
      "type": "VEC3"
    },
    {
      "bufferView": 1,
      "byteOffset": 10184,
      "componentType": 5126,
      "count": 4258,
      "max": [
        1.0,
        1.0
      ],
      "min": [
        -9.999999974752427e-07,
        0.0
      ],
      "type": "VEC2"
    },
    {
      "bufferView": 0,
      "byteOffset": 7980,
      "componentType": 5125,
      "count": 8274,
      "type": "SCALAR"
    },
    {
      "bufferView": 2,
      "byteOffset": 132744,
      "componentType": 5126,
      "count": 1674,
      "max": [
        0.8419619798660278,
        -1.3753780126571655,
        0.9489110112190247
      ],
      "min": [
        -1.3486690521240234,
        -1.658998966217041,
        -1.1961630582809448
      ],
      "type": "VEC3"
    },
    {
      "bufferView": 2,
      "byteOffset": 152832,
      "componentType": 5126,
      "count": 1674,
      "max": [
        1.0,
        1.0,
        1.0
      ],
      "min": [
        -1.0,
        -1.0,
        -1.0
      ],
      "type": "VEC3"
    },
    {
      "bufferView": 1,
      "byteOffset": 44248,
      "componentType": 5126,
      "count": 1674,
      "max": [
        1.0,
        1.0
      ],
      "min": [
        0.0,
        0.0
      ],
      "type": "VEC2"
    },
    {
      "bufferView": 0,
      "byteOffset": 41076,
      "componentType": 5125,
      "count": 3456,
      "type": "SCALAR"
    },
    {
      "bufferView": 2,
      "byteOffset": 172920,
      "componentType": 5126,
      "count": 122,
      "max": [
        -0.5818740129470825,
        -1.4442189931869507,
        0.3019239902496338
      ],
      "min": [
        -0.6329600214958191,
        -1.5122519731521606,
        0.2508380115032196
      ],
      "type": "VEC3"
    },
    {
      "bufferView": 2,
      "byteOffset": 174384,
      "componentType": 5126,
      "count": 122,
      "max": [
        0.9807839393615723,
        1.0,
        0.9807839393615723
      ],
      "min": [
        -0.9807839393615723,
        -1.0,
        -0.9807839393615723
      ],
      "type": "VEC3"
    },
    {
      "bufferView": 1,
      "byteOffset": 57640,
      "componentType": 5126,
      "count": 122,
      "max": [
        1.0,
        0.7830629944801331
      ],
      "min": [
        0.0,
        0.46693700551986694
      ],
      "type": "VEC2"
    },
    {
      "bufferView": 0,
      "byteOffset": 54900,
      "componentType": 5125,
      "count": 252,
      "type": "SCALAR"
    },
    {
      "bufferView": 2,
      "byteOffset": 175848,
      "componentType": 5126,
      "count": 22,
      "max": [
        0.46576499938964844,
        -1.5722689628601074,
        0.9306849837303162
      ],
      "min": [
        -0.3803269863128662,
        -1.5978699922561646,
        0.5182420015335083
      ],
      "type": "VEC3"
    },
    {
      "bufferView": 2,
      "byteOffset": 176112,
      "componentType": 5126,
      "count": 22,
      "max": [
        0.03730124235153198,
        -0.9992332458496094,
        0.0
      ],
      "min": [
        -0.0,
        -1.0,
        -0.011900396086275578
      ],
      "type": "VEC3"
    },
    {
      "bufferView": 1,
      "byteOffset": 58616,
      "componentType": 5126,
      "count": 22,
      "max": [
        0.7420409917831421,
        0.8670409917831421
      ],
      "min": [
        0.375,
        0.25
      ],
      "type": "VEC2"
    },
    {
      "bufferView": 0,
      "byteOffset": 55908,
      "componentType": 5125,
      "count": 48,
      "type": "SCALAR"
    }
  ],
  "asset": {
    "extras": {
      "author": "Astrien (https://sketchfab.com/Astrien)",
      "license": "CC-BY-NC-4.0 (http://creativecommons.org/licenses/by-nc/4.0/)",
      "source": "https://sketchfab.com/3d-models/low-poly-ak-47-9ee0f5c01dfe4f09a61d60b450ec5117",
      "title": "Low Poly AK-47"
    },
    "generator": "Sketchfab-12.66.0",
    "version": "2.0"
  },
  "bufferViews": [
    {
      "buffer": 0,
      "byteLength": 56100,
      "name": "floatBufferViews",
      "target": 34963
    },
    {
      "buffer": 0,
      "byteLength": 58792,
      "byteOffset": 56100,
      "byteStride": 8,
      "name": "floatBufferViews",
      "target": 34962
    },
    {
      "buffer": 0,
      "byteLength": 176376,
      "byteOffset": 114892,
      "byteStride": 12,
      "name": "floatBufferViews",
      "target": 34962
    }
  ],
  "buffers": [
    {
      "byteLength": 291268,
      "uri": "scene.bin"
    }
  ],
  "materials": [
    {
      "doubleSided": true,
      "name": "Material.001",
      "pbrMetallicRoughness": {
        "baseColorFactor": [
          0.054969,
          0.015961,
          0.0,
          1.0
        ],
        "metallicFactor": 0.0
      }
    },
    {
      "doubleSided": true,
      "name": "Material.002",
      "pbrMetallicRoughness": {
        "baseColorFactor": [
          0.0,
          0.0,
          0.0,
          1.0
        ],
        "metallicFactor": 0.0
      }
    },
    {
      "doubleSided": true,
      "name": "Material.005",
      "pbrMetallicRoughness": {
        "baseColorFactor": [
          0.066807,
          0.066807,
          0.066807,
          1.0
        ],
        "metallicFactor": 0.5610859797287027
      }
    },
    {
      "doubleSided": true,
      "name": "Material.006",
      "pbrMetallicRoughness": {
        "baseColorFactor": [
          0.0,
          0.0,
          0.0,
          1.0
        ],
        "metallicFactor": 0.0
      }
    },
    {
      "doubleSided": true,
      "name": "Material.009",
      "pbrMetallicRoughness": {
        "baseColorFactor": [
          0.017388,
          0.017388,
          0.017388,
          1.0
        ],
        "metallicFactor": 0.0
      }
    }
  ],
  "meshes": [
    {
      "name": "Object_0",
      "primitives": [
        {
          "attributes": {
            "NORMAL": 1,
            "POSITION": 0,
            "TEXCOORD_0": 2
          },
          "indices": 3,
          "material": 0,
          "mode": 4
        }
      ]
    },
    {
      "name": "Object_1",
      "primitives": [
        {
          "attributes": {
            "NORMAL": 5,
            "POSITION": 4,
            "TEXCOORD_0": 6
          },
          "indices": 7,
          "material": 1,
          "mode": 4
        }
      ]
    },
    {
      "name": "Object_2",
      "primitives": [
        {
          "attributes": {
            "NORMAL": 9,
            "POSITION": 8,
            "TEXCOORD_0": 10
          },
          "indices": 11,
          "material": 2,
          "mode": 4
        }
      ]
    },
    {
      "name": "Object_3",
      "primitives": [
        {
          "attributes": {
            "NORMAL": 13,
            "POSITION": 12,
            "TEXCOORD_0": 14
          },
          "indices": 15,
          "material": 3,
          "mode": 4
        }
      ]
    },
    {
      "name": "Object_4",
      "primitives": [
        {
          "attributes": {
            "NORMAL": 17,
            "POSITION": 16,
            "TEXCOORD_0": 18
          },
          "indices": 19,
          "material": 4,
          "mode": 4
        }
      ]
    }
  ],
  "nodes": [
    {
      "children": [
        1
      ],
      "matrix": [
        1.0,
        0.0,
        0.0,
        0.0,
        0.0,
        2.220446049250313e-16,
        -1.0,
        0.0,
        0.0,
        1.0,
        2.220446049250313e-16,
        0.0,
        0.0,
        0.0,
        0.0,
        1.0
      ],
      "name": "Sketchfab_model"
    },
    {
      "children": [
        2,
        3,
        4,
        5,
        6
      ],
      "name": "ak7finished.obj.cleaner.materialmerger.gles"
    },
    {
      "mesh": 0,
      "name": "Object_2"
    },
    {
      "mesh": 1,
      "name": "Object_3"
    },
    {
      "mesh": 2,
      "name": "Object_4"
    },
    {
      "mesh": 3,
      "name": "Object_5"
    },
    {
      "mesh": 4,
      "name": "Object_6"
    }
  ],
  "scene": 0,
  "scenes": [
    {
      "name": "Sketchfab_Scene",
      "nodes": [
        0
      ]
    }
  ]
}
