{
  "accessors": [
    {
      "bufferView": 2,
      "componentType": 5126,
      "count": 473,
      "max": [
        2.973489761352539,
        2.8301405906677246,
        25.0
      ],
      "min": [
        -3.6215507984161377,
        -2.8301405906677246,
        -0.0483856201171875
      ],
      "type": "VEC3"
    },
    {
      "bufferView": 2,
      "byteOffset": 5676,
      "componentType": 5126,
      "count": 473,
      "max": [
        0.9999973177909851,
        1.0,
        0.6717944741249084
      ],
      "min": [
        -0.9999973177909851,
        -1.0,
        -0.9976157546043396
      ],
      "type": "VEC3"
    },
    {
      "bufferView": 1,
      "componentType": 5126,
      "count": 473,
      "max": [
        0.5850608348846436,
        0.9827120900154114
      ],
      "min": [
        0.03581397980451584,
        0.013755828142166138
      ],
      "type": "VEC2"
    },
    {
      "bufferView": 0,
      "componentType": 5125,
      "count": 1524,
      "type": "SCALAR"
    },
    {
      "bufferView": 2,
      "byteOffset": 11352,
      "componentType": 5126,
      "count": 362,
      "max": [
        10.0,
        9.848077774047852,
        1.6927814483642578
      ],
      "min": [
        -10.0,
        -9.848078727722168,
        -0.4734067916870117
      ],
      "type": "VEC3"
    },
    {
      "bufferView": 2,
      "byteOffset": 15696,
      "componentType": 5126,
      "count": 362,
      "max": [
        1.0,
        0.9969475269317627,
        1.0
      ],
      "min": [
        -1.0,
        -0.9969475269317627,
        -1.0
      ],
      "type": "VEC3"
    },
    {
      "bufferView": 1,
      "byteOffset": 3784,
      "componentType": 5126,
      "count": 362,
      "max": [
        0.3972899615764618,
        0.988046407699585
      ],
      "min": [
        0.20147214829921722,
        0.24931877851486206
      ],
      "type": "VEC2"
    },
    {
      "bufferView": 0,
      "byteOffset": 6096,
      "componentType": 5125,
      "count": 1080,
      "type": "SCALAR"
    },
    {
      "bufferView": 2,
      "byteOffset": 20040,
      "componentType": 5126,
      "count": 291,
      "max": [
        3.8020830154418945,
        0.7500002384185791,
        81.3646469116211
      ],
      "min": [
        -8.781310081481934,
        -0.75,
        0.0
      ],
      "type": "VEC3"
    },
    {
      "bufferView": 2,
      "byteOffset": 23532,
      "componentType": 5126,
      "count": 291,
      "max": [
        0.21688836812973022,
        1.0,
        0.6208171844482422
      ],
      "min": [
        -0.9999997019767761,
        -1.0,
        -0.4605676531791687
      ],
      "type": "VEC3"
    },
    {
      "bufferView": 1,
      "byteOffset": 6680,
      "componentType": 5126,
      "count": 291,
      "max": [
        0.18894988298416138,
        0.9876773953437805
      ],
      "min": [
        0.017065241932868958,
        0.08238480240106583
      ],
      "type": "VEC2"
    },
    {
      "bufferView": 0,
      "byteOffset": 10416,
      "componentType": 5125,
      "count": 843,
      "type": "SCALAR"
    }
  ],
  "asset": {
    "extras": {
      "author": "Three Dog Night (https://sketchfab.com/ThreeDogNight404)",
      "license": "CC-BY-4.0 (http://creativecommons.org/licenses/by/4.0/)",
      "source": "https://sketchfab.com/3d-models/iron-katana-low-poly-df2b77b854ed437ead237a8d149f2d8b",
      "title": "Iron Katana (low Poly)"
    },
    "generator": "Sketchfab-12.67.0",
    "version": "2.0"
  },
  "bufferViews": [
    {
      "buffer": 0,
      "byteLength": 13788,
      "name": "floatBufferViews",
      "target": 34963
    },
    {
      "buffer": 0,
      "byteLength": 9008,
      "byteOffset": 13788,
      "byteStride": 8,
      "name": "floatBufferViews",
      "target": 34962
    },
    {
      "buffer": 0,
      "byteLength": 27024,
      "byteOffset": 22796,
      "byteStride": 12,
      "name": "floatBufferViews",
      "target": 34962
    }
  ],
  "buffers": [
    {
      "byteLength": 49820,
      "uri": "scene.bin"
    }
  ],
  "images": [
    {
      "uri": "textures/Material_1_baseColor.png"
    }
  ],
  "materials": [
    {
      "doubleSided": true,
      "name": "Material_1",
      "pbrMetallicRoughness": {
        "baseColorTexture": {
          "index": 0
        },
        "metallicFactor": 0.0,
        "roughnessFactor": 0.8929713596497552
      }
    }
  ],
  "meshes": [
    {
      "name": "Box001_Material #1_0",
      "primitives": [
        {
          "attributes": {
            "NORMAL": 1,
            "POSITION": 0,
            "TEXCOORD_0": 2
          },
          "indices": 3,
          "material": 0,
          "mode": 4
        }
      ]
    },
    {
      "name": "Cylinder001_Material #1_0",
      "primitives": [
        {
          "attributes": {
            "NORMAL": 5,
            "POSITION": 4,
            "TEXCOORD_0": 6
          },
          "indices": 7,
          "material": 0,
          "mode": 4
        }
      ]
    },
    {
      "name": "Box002_Material #1_0",
      "primitives": [
        {
          "attributes": {
            "NORMAL": 9,
            "POSITION": 8,
            "TEXCOORD_0": 10
          },
          "indices": 11,
          "material": 0,
          "mode": 4
        }
      ]
    }
  ],
  "nodes": [
    {
      "children": [
        1
      ],
      "matrix": [
        0.00580433279515602,
        -0.005615845343734049,
        0.00018281802254651328,
        0.0,
        0.005135844874068596,
        0.005409216875542743,
        0.0031024006087769242,
        0.0,
        -0.0022790875962366286,
        -0.0021128349883808867,
        0.0074567490186878685,
        0.0,
        14.977794647216797,
        67.29622650146486,
        -49.515766143798814,
        1.0
      ],
      "name": "Sketchfab_model"
    },
    {
      "children": [
        2
      ],
      "matrix": [
        1.0,
        0.0,
        0.0,
        0.0,
        0.0,
        0.0,
        1.0,
        0.0,
        0.0,
        -1.0,
        0.0,
        0.0,
        0.0,
        0.0,
        0.0,
        1.0
      ],
      "name": "Iron_Katana_001.FBX"
    },
    {
      "children": [
        3,
        5,
        7
      ],
      "name": "RootNode"
    },
    {
      "children": [
        4
      ],
      "matrix": [
        0.8799819946289063,
        0.0,
        0.0,
        0.0,
        0.0,
        1.1840995177490025e-16,
        -0.5332710146903992,
        0.0,
        0.0,
        1.0,
        2.220446049250313e-16,
        0.0,
        0.0,
        0.0,
        0.0,
        1.0
      ],
      "name": "Box001"
    },
    {
      "mesh": 0,
      "name": "Box001_Material #1_0"
    },
    {
      "children": [
        6
      ],
      "matrix": [
        0.7643219828605652,
        0.0,
        0.0,
        0.0,
        0.0,
        1.3754574954235498e-16,
        -0.6194509863853455,
        0.0,
        0.0,
        1.0,
        2.220446049250313e-16,
        0.0,
        0.0,
        25.0,
        0.0,
        1.0
      ],
      "name": "Cylinder001"
    },
    {
      "mesh": 1,
      "name": "Cylinder001_Material #1_0"
    },
    {
      "children": [
        8
      ],
      "matrix": [
        1.0,
        0.0,
        0.0,
        0.0,
        0.0,
        2.220446049250313e-16,
        -1.0,
        0.0,
        0.0,
        1.0,
        2.220446049250313e-16,
        0.0,
        0.0,
        26.0,
        0.0,
        1.0
      ],
      "name": "Box002"
    },
    {
      "mesh": 2,
      "name": "Box002_Material #1_0"
    }
  ],
  "samplers": [
    {
      "magFilter": 9729,
      "minFilter": 9987,
      "wrapS": 10497,
      "wrapT": 10497
    }
  ],
  "scene": 0,
  "scenes": [
    {
      "name": "Sketchfab_Scene",
      "nodes": [
        0
      ]
    }
  ],
  "textures": [
    {
      "sampler": 0,
      "source": 0
    }
  ]
}
